<svg width="20" height="20" viewBox="0 0 20 20" fill="none" xmlns="http://www.w3.org/2000/svg">
<path d="M5.67315 6.48955C5.62577 6.37536 5.61333 6.24969 5.63739 6.12843C5.66145 6.00716 5.72093 5.89576 5.8083 5.8083L9.5583 2.0583C9.61635 2.00019 9.68528 1.95409 9.76115 1.92264C9.83703 1.89119 9.91836 1.875 10.0005 1.875C10.0826 1.875 10.164 1.89119 10.2398 1.92264C10.3157 1.95409 10.3846 2.00019 10.4427 2.0583L14.1927 5.8083C14.2802 5.89571 14.3398 6.00712 14.3639 6.12843C14.3881 6.24973 14.3757 6.37547 14.3284 6.48974C14.281 6.604 14.2009 6.70165 14.098 6.77032C13.9951 6.83899 13.8742 6.87559 13.7505 6.87549H6.25049C6.12688 6.87547 6.00605 6.83879 5.90328 6.77009C5.80052 6.70139 5.72043 6.60377 5.67315 6.48955ZM13.7505 13.1255H6.25049C6.12681 13.1254 6.00587 13.162 5.903 13.2307C5.80013 13.2993 5.71995 13.397 5.6726 13.5112C5.62526 13.6255 5.61288 13.7513 5.63704 13.8726C5.66119 13.9939 5.7208 14.1053 5.8083 14.1927L9.5583 17.9427C9.61635 18.0008 9.68528 18.0469 9.76115 18.0783C9.83703 18.1098 9.91836 18.126 10.0005 18.126C10.0826 18.126 10.164 18.1098 10.2398 18.0783C10.3157 18.0469 10.3846 18.0008 10.4427 17.9427L14.1927 14.1927C14.2802 14.1053 14.3398 13.9939 14.3639 13.8726C14.3881 13.7513 14.3757 13.6255 14.3284 13.5112C14.281 13.397 14.2009 13.2993 14.098 13.2307C13.9951 13.162 13.8742 13.1254 13.7505 13.1255Z" fill="#475569"/>
</svg>
