<svg width="20" height="20" viewBox="0 0 20 20" fill="none" xmlns="http://www.w3.org/2000/svg">
<g clip-path="url(#clip0_450_38763)">
<path d="M16.6597 8.67333V14.6667C16.6597 16.5067 15.1663 18 13.3263 18H6.66634C5.77967 18 4.93967 17.6533 4.30634 17.0267C3.67967 16.4 3.33301 15.56 3.33301 14.6667V8.66667C3.33301 6.82667 4.82634 5.33333 6.66634 5.33333H7.33301C7.69967 5.33333 7.99967 5.63333 7.99967 6C7.99967 6.36667 7.69967 6.66667 7.33301 6.66667H6.66634C5.56634 6.66667 4.66634 7.56667 4.66634 8.66667V14.6667C4.66634 15.2 4.87301 15.7067 5.25301 16.08C5.63301 16.46 6.13301 16.6667 6.66634 16.6667H13.3263C14.4263 16.6667 15.3263 15.7667 15.3263 14.6667V8.67333C15.3263 8.14 15.1197 7.63333 14.7397 7.26C14.3597 6.88667 13.8597 6.67333 13.3263 6.67333H12.6663C12.2997 6.67333 11.9997 6.37333 11.9997 6.00667C11.9997 5.64 12.2997 5.34 12.6663 5.34H13.3263H13.333C14.2197 5.34 15.0597 5.68667 15.6863 6.31333C16.3197 6.94 16.6663 7.78 16.6663 8.67333H16.6597ZM7.12634 10.1867C6.85967 9.93333 6.43967 9.94 6.18634 10.2067C5.93301 10.4733 5.93967 10.8933 6.21301 11.1467L8.59301 13.4133C8.98634 13.8067 9.49967 14 10.013 14C10.5263 14 11.0263 13.8067 11.413 13.4267L13.8063 11.1533C14.073 10.9 14.0863 10.48 13.833 10.2133C13.5797 9.94667 13.1597 9.93333 12.893 10.1933L10.6863 12.2933V2.66667C10.6863 2.3 10.3863 2 10.0197 2C9.65301 2 9.35301 2.3 9.35301 2.66667V12.2867L7.14634 10.1867H7.12634Z" fill="#727A90"/>
</g>
<defs>
<clipPath id="clip0_450_38763">
<rect width="16" height="16" fill="white" transform="translate(2 2)"/>
</clipPath>
</defs>
</svg>
