<svg width="14" height="14" viewBox="0 0 14 14" fill="none" xmlns="http://www.w3.org/2000/svg">
<path fill-rule="evenodd" clip-rule="evenodd" d="M1.16699 8.16634C1.16699 7.84417 1.42816 7.58301 1.75033 7.58301H5.83366C6.15582 7.58301 6.41699 7.84417 6.41699 8.16634V12.2497C6.41699 12.5718 6.15582 12.833 5.83366 12.833H1.75033C1.42816 12.833 1.16699 12.5718 1.16699 12.2497V8.16634ZM2.33366 8.74967V11.6663H5.25033V8.74967H2.33366Z" fill="#475569"/>
<path fill-rule="evenodd" clip-rule="evenodd" d="M1.16699 1.75033C1.16699 1.42816 1.42816 1.16699 1.75033 1.16699H5.83366C6.15582 1.16699 6.41699 1.42816 6.41699 1.75033V5.83366C6.41699 6.15582 6.15582 6.41699 5.83366 6.41699H1.75033C1.42816 6.41699 1.16699 6.15582 1.16699 5.83366V1.75033ZM2.33366 2.33366V5.25033H5.25033V2.33366H2.33366Z" fill="#475569"/>
<path fill-rule="evenodd" clip-rule="evenodd" d="M7.58301 2.33333C7.58301 2.01117 7.84417 1.75 8.16634 1.75H12.2497C12.5718 1.75 12.833 2.01117 12.833 2.33333C12.833 2.6555 12.5718 2.91667 12.2497 2.91667H8.16634C7.84417 2.91667 7.58301 2.6555 7.58301 2.33333Z" fill="#475569"/>
<path fill-rule="evenodd" clip-rule="evenodd" d="M7.58301 5.25033C7.58301 4.92816 7.84417 4.66699 8.16634 4.66699H12.2497C12.5718 4.66699 12.833 4.92816 12.833 5.25033C12.833 5.57249 12.5718 5.83366 12.2497 5.83366H8.16634C7.84417 5.83366 7.58301 5.57249 7.58301 5.25033Z" fill="#475569"/>
<path fill-rule="evenodd" clip-rule="evenodd" d="M7.58301 8.75033C7.58301 8.42816 7.84417 8.16699 8.16634 8.16699H12.2497C12.5718 8.16699 12.833 8.42816 12.833 8.75033C12.833 9.07249 12.5718 9.33366 12.2497 9.33366H8.16634C7.84417 9.33366 7.58301 9.07249 7.58301 8.75033Z" fill="#475569"/>
<path fill-rule="evenodd" clip-rule="evenodd" d="M7.58301 11.6663C7.58301 11.3442 7.84417 11.083 8.16634 11.083H12.2497C12.5718 11.083 12.833 11.3442 12.833 11.6663C12.833 11.9885 12.5718 12.2497 12.2497 12.2497H8.16634C7.84417 12.2497 7.58301 11.9885 7.58301 11.6663Z" fill="#475569"/>
</svg>
