<svg width="14" height="14" viewBox="0 0 14 14" fill="none" xmlns="http://www.w3.org/2000/svg">
<path fill-rule="evenodd" clip-rule="evenodd" d="M2.33333 7.58398C2.6555 7.58398 2.91667 7.84515 2.91667 8.16732V12.2507C2.91667 12.5728 2.6555 12.834 2.33333 12.834C2.01117 12.834 1.75 12.5728 1.75 12.2507V8.16732C1.75 7.84515 2.01117 7.58398 2.33333 7.58398Z" fill="#475569"/>
<path fill-rule="evenodd" clip-rule="evenodd" d="M2.33333 1.16699C2.6555 1.16699 2.91667 1.42816 2.91667 1.75033V5.83366C2.91667 6.15582 2.6555 6.41699 2.33333 6.41699C2.01117 6.41699 1.75 6.15582 1.75 5.83366V1.75033C1.75 1.42816 2.01117 1.16699 2.33333 1.16699Z" fill="#475569"/>
<path fill-rule="evenodd" clip-rule="evenodd" d="M7.00033 6.41699C7.32249 6.41699 7.58366 6.67816 7.58366 7.00033V12.2503C7.58366 12.5725 7.32249 12.8337 7.00033 12.8337C6.67816 12.8337 6.41699 12.5725 6.41699 12.2503V7.00033C6.41699 6.67816 6.67816 6.41699 7.00033 6.41699Z" fill="#475569"/>
<path fill-rule="evenodd" clip-rule="evenodd" d="M7.00033 1.16699C7.32249 1.16699 7.58366 1.42816 7.58366 1.75033V4.66699C7.58366 4.98916 7.32249 5.25033 7.00033 5.25033C6.67816 5.25033 6.41699 4.98916 6.41699 4.66699V1.75033C6.41699 1.42816 6.67816 1.16699 7.00033 1.16699Z" fill="#475569"/>
<path fill-rule="evenodd" clip-rule="evenodd" d="M11.6663 8.75C11.9885 8.75 12.2497 9.01117 12.2497 9.33333V12.25C12.2497 12.5722 11.9885 12.8333 11.6663 12.8333C11.3442 12.8333 11.083 12.5722 11.083 12.25V9.33333C11.083 9.01117 11.3442 8.75 11.6663 8.75Z" fill="#475569"/>
<path fill-rule="evenodd" clip-rule="evenodd" d="M11.6663 1.16699C11.9885 1.16699 12.2497 1.42816 12.2497 1.75033V7.00033C12.2497 7.32249 11.9885 7.58366 11.6663 7.58366C11.3442 7.58366 11.083 7.32249 11.083 7.00033V1.75033C11.083 1.42816 11.3442 1.16699 11.6663 1.16699Z" fill="#475569"/>
<path fill-rule="evenodd" clip-rule="evenodd" d="M0 8.16732C0 7.84515 0.261167 7.58398 0.583333 7.58398H4.08333C4.4055 7.58398 4.66667 7.84515 4.66667 8.16732C4.66667 8.48948 4.4055 8.75065 4.08333 8.75065H0.583333C0.261167 8.75065 0 8.48948 0 8.16732Z" fill="#475569"/>
<path fill-rule="evenodd" clip-rule="evenodd" d="M4.66699 4.66732C4.66699 4.34515 4.92816 4.08398 5.25033 4.08398H8.75033C9.07249 4.08398 9.33366 4.34515 9.33366 4.66732C9.33366 4.98948 9.07249 5.25065 8.75033 5.25065H5.25033C4.92816 5.25065 4.66699 4.98948 4.66699 4.66732Z" fill="#475569"/>
<path fill-rule="evenodd" clip-rule="evenodd" d="M9.33301 9.33333C9.33301 9.01117 9.59418 8.75 9.91634 8.75H13.4163C13.7385 8.75 13.9997 9.01117 13.9997 9.33333C13.9997 9.6555 13.7385 9.91667 13.4163 9.91667H9.91634C9.59418 9.91667 9.33301 9.6555 9.33301 9.33333Z" fill="#475569"/>
</svg>
