<svg width="14" height="14" viewBox="0 0 14 14" fill="none" xmlns="http://www.w3.org/2000/svg">
<path fill-rule="evenodd" clip-rule="evenodd" d="M2.91699 2.33366C2.59483 2.33366 2.33366 2.59483 2.33366 2.91699V11.0837C2.33366 11.4058 2.59483 11.667 2.91699 11.667H11.0837C11.4058 11.667 11.667 11.4058 11.667 11.0837V2.91699C11.667 2.59483 11.4058 2.33366 11.0837 2.33366H2.91699ZM1.16699 2.91699C1.16699 1.95049 1.95049 1.16699 2.91699 1.16699H11.0837C12.0502 1.16699 12.8337 1.95049 12.8337 2.91699V11.0837C12.8337 12.0502 12.0502 12.8337 11.0837 12.8337H2.91699C1.95049 12.8337 1.16699 12.0502 1.16699 11.0837V2.91699Z" fill="#475569"/>
<path fill-rule="evenodd" clip-rule="evenodd" d="M1.16699 5.25033C1.16699 4.92816 1.42816 4.66699 1.75033 4.66699H12.2503C12.5725 4.66699 12.8337 4.92816 12.8337 5.25033C12.8337 5.57249 12.5725 5.83366 12.2503 5.83366H1.75033C1.42816 5.83366 1.16699 5.57249 1.16699 5.25033Z" fill="#475569"/>
<path fill-rule="evenodd" clip-rule="evenodd" d="M1.16699 8.75033C1.16699 8.42816 1.42816 8.16699 1.75033 8.16699H12.2503C12.5725 8.16699 12.8337 8.42816 12.8337 8.75033C12.8337 9.07249 12.5725 9.33366 12.2503 9.33366H1.75033C1.42816 9.33366 1.16699 9.07249 1.16699 8.75033Z" fill="#475569"/>
<path fill-rule="evenodd" clip-rule="evenodd" d="M7.00033 1.16699C7.32249 1.16699 7.58366 1.42816 7.58366 1.75033V12.2503C7.58366 12.5725 7.32249 12.8337 7.00033 12.8337C6.67816 12.8337 6.41699 12.5725 6.41699 12.2503V1.75033C6.41699 1.42816 6.67816 1.16699 7.00033 1.16699Z" fill="#475569"/>
</svg>
