<svg width="20" height="20" viewBox="0 0 20 20" fill="none" xmlns="http://www.w3.org/2000/svg">
<path fill-rule="evenodd" clip-rule="evenodd" d="M9.9997 0.833008C10.3169 0.833008 10.6066 1.01307 10.747 1.29749L13.1283 6.12173L18.4536 6.9001C18.7674 6.94597 19.0279 7.16597 19.1257 7.46765C19.2236 7.76932 19.1417 8.10036 18.9145 8.32164L15.0618 12.0741L15.971 17.3755C16.0247 17.6881 15.8961 18.0041 15.6395 18.1906C15.3828 18.377 15.0426 18.4016 14.7618 18.2539L9.9997 15.7495L5.23757 18.2539C4.95681 18.4016 4.61657 18.377 4.35992 18.1906C4.10327 18.0041 3.97473 17.6881 4.02836 17.3755L4.9376 12.0741L1.08492 8.32164C0.85774 8.10036 0.775846 7.76932 0.87366 7.46765C0.971475 7.16597 1.23204 6.94597 1.54584 6.9001L6.87115 6.12173L9.25244 1.29749C9.39284 1.01307 9.68252 0.833008 9.9997 0.833008ZM9.9997 3.54905L8.17196 7.25186C8.05067 7.49757 7.81635 7.66795 7.54522 7.70758L3.45671 8.30518L6.41448 11.186C6.61104 11.3775 6.70076 11.6534 6.65437 11.9239L5.95652 15.9927L9.61182 14.0704C9.85464 13.9427 10.1448 13.9427 10.3876 14.0704L14.0429 15.9927L13.345 11.9239C13.2986 11.6534 13.3884 11.3775 13.5849 11.186L16.5427 8.30518L12.4542 7.70758C12.183 7.66795 11.9487 7.49757 11.8274 7.25186L9.9997 3.54905Z" fill="#475569"/>
</svg>
